<?xml version="1.0" standalone="no"?>
<!DOCTYPE svg PUBLIC "-//W3C//DTD SVG 20010904//EN"
 "http://www.w3.org/TR/2001/REC-SVG-20010904/DTD/svg10.dtd">
<svg version="1.0" xmlns="http://www.w3.org/2000/svg"
 width="1280.000000pt" height="1232.000000pt" viewBox="0 0 1280.000000 1232.000000"
 preserveAspectRatio="xMidYMid meet">
<metadata>
Created by potrace 1.15, written by Peter Selinger 2001-2017
</metadata>
<g transform="translate(0.000000,1232.000000) scale(0.100000,-0.100000)"
fill="#000000" stroke="none">
<path d="M10215 12310 c-348 -35 -541 -107 -855 -316 -198 -133 -241 -166
-332 -252 -244 -233 -544 -681 -710 -1059 -137 -313 -248 -733 -278 -1048 -14
-150 -13 -273 6 -659 17 -347 15 -499 -10 -706 -9 -69 -27 -229 -41 -356 -38
-350 -71 -495 -153 -663 -71 -146 -246 -290 -389 -320 -29 -6 -196 -13 -370
-16 -409 -8 -1009 -51 -1293 -95 -165 -25 -245 -44 -560 -135 -646 -186 -922
-245 -1235 -265 -429 -27 -722 -87 -930 -190 -154 -76 -193 -85 -310 -69 -94
12 -331 7 -535 -12 -130 -12 -201 -33 -405 -119 -168 -71 -499 -182 -745 -249
-181 -50 -238 -70 -319 -111 -78 -39 -169 -127 -205 -198 l-26 -52 22 -5 c163
-37 550 -95 632 -95 39 0 165 9 281 20 275 26 533 24 488 -3 -66 -41 -245 -70
-533 -87 -496 -29 -1066 -113 -1195 -175 -59 -28 -93 -63 -164 -163 l-52 -73
58 -27 c51 -23 75 -27 198 -33 137 -7 185 -14 185 -28 0 -14 -49 -54 -191
-155 -79 -56 -144 -107 -147 -114 -2 -6 7 -17 20 -22 36 -17 140 9 303 73 77
31 142 54 144 52 2 -3 -53 -90 -123 -195 -127 -193 -176 -277 -176 -305 0 -8
11 -20 25 -25 30 -11 65 -1 241 68 71 28 203 80 294 114 l165 63 185 -1 c284
-1 374 -22 646 -154 141 -68 288 -174 388 -280 137 -145 213 -266 317 -502 70
-160 235 -430 357 -587 83 -107 232 -256 342 -344 210 -168 658 -461 863 -566
l106 -55 7 -65 c11 -100 -10 -247 -66 -465 -53 -208 -68 -244 -161 -396 -84
-138 -102 -189 -97 -275 4 -61 11 -80 49 -143 62 -103 67 -105 138 -39 70 65
108 83 182 89 l56 4 24 -45 c39 -74 106 -159 146 -185 21 -14 84 -43 141 -66
83 -33 126 -44 225 -55 233 -28 579 -16 886 30 75 11 115 24 210 69 112 54
142 63 174 50 9 -3 32 -52 52 -109 l37 -104 70 -16 c312 -71 533 -89 1058 -89
245 1 497 6 561 11 123 11 168 27 242 85 28 23 51 31 96 35 53 5 67 2 148 -36
95 -43 115 -47 159 -31 25 10 26 14 22 60 -3 33 -19 73 -49 126 -62 111 -109
155 -198 190 -58 23 -87 43 -141 96 -59 58 -77 69 -139 88 -66 20 -87 22 -274
17 -163 -4 -218 -9 -282 -26 -96 -25 -218 -27 -325 -6 -94 19 -123 47 -140
132 -33 168 -53 206 -181 338 l-89 91 -6 70 c-3 38 1 165 10 283 18 242 20
392 6 499 -9 68 -8 76 14 111 20 32 42 46 152 95 165 74 245 122 429 257 566
415 599 434 1120 619 571 202 784 314 1035 542 375 342 620 743 712 1168 20
94 22 133 23 365 0 229 -3 275 -23 388 -37 203 -81 371 -222 837 -438 1445
-474 1579 -527 1935 -26 175 -26 692 0 855 42 267 99 513 142 615 23 57 74
125 154 209 141 145 185 164 486 201 290 37 382 63 664 188 130 57 141 60 246
68 61 4 198 22 305 40 257 43 425 44 675 4 254 -39 377 -35 469 18 57 32 62
46 43 103 l-17 49 27 20 c62 46 117 102 129 132 45 106 -27 234 -188 336 -29
19 -201 109 -383 200 -302 152 -343 176 -477 276 -186 141 -201 159 -229 278
-12 52 -31 108 -43 126 -40 59 -225 186 -320 219 -56 19 -208 25 -262 9 -20
-6 -56 -4 -105 5 -92 17 -443 26 -564 14z m-4182 -10568 c7 -106 23 -161 87
-303 75 -167 76 -181 36 -502 -19 -153 -37 -281 -40 -284 -3 -3 -32 6 -63 20
-95 42 -171 60 -222 53 -71 -10 -398 -6 -469 5 -92 14 -156 41 -294 124 l-123
75 3 64 c3 59 0 74 -37 154 -48 103 -50 129 -20 262 15 70 21 134 22 242 2
174 -17 165 167 77 233 -110 352 -106 700 24 176 65 230 85 241 86 3 1 9 -43
12 -97z"/>
</g>
</svg>
