<?xml version="1.0" standalone="no"?>
<!DOCTYPE svg PUBLIC "-//W3C//DTD SVG 20010904//EN"
 "http://www.w3.org/TR/2001/REC-SVG-20010904/DTD/svg10.dtd">
<svg version="1.0" xmlns="http://www.w3.org/2000/svg"
 width="600.000000pt" height="600.000000pt" viewBox="0 0 600.000000 600.000000"
 preserveAspectRatio="xMidYMid meet">

<g transform="translate(0.000000,600.000000) scale(0.100000,-0.100000)"
fill="#000000" stroke="none">
<path d="M2445 4253 c-39 -13 -68 -36 -135 -104 -47 -47 -94 -102 -105 -120
-26 -45 -105 -84 -197 -99 -151 -25 -177 -45 -136 -106 13 -18 30 -37 38 -41
8 -5 119 -8 245 -9 197 0 238 -3 288 -19 44 -14 59 -24 63 -42 13 -50 -32
-365 -102 -718 -24 -118 -28 -165 -28 -300 0 -150 1 -164 27 -228 35 -90 88
-167 151 -223 68 -60 207 -129 306 -151 71 -16 82 -21 87 -43 18 -75 72 -138
138 -160 33 -11 35 -14 35 -56 0 -24 -3 -44 -6 -44 -4 0 -47 14 -96 31 -78 26
-93 29 -124 19 -36 -12 -64 -52 -64 -90 0 -20 4 -20 163 -18 l162 3 3 71 3 72
44 17 c56 21 100 73 122 144 10 29 22 55 28 56 170 50 384 187 430 276 23 43
19 96 -9 124 l-24 23 35 34 c70 67 94 159 53 203 l-20 22 31 61 c74 142 32
282 -84 282 -54 0 -76 -16 -184 -127 -72 -75 -102 -98 -163 -127 -91 -43 -185
-58 -297 -45 -235 26 -392 231 -393 510 0 109 10 163 72 378 79 274 77 364
-11 464 -73 83 -230 119 -346 80z m193 -38 c67 -20 130 -69 160 -125 21 -40
23 -54 19 -120 -3 -45 -22 -130 -47 -214 -64 -214 -80 -297 -80 -421 0 -130
15 -201 66 -302 44 -88 138 -182 218 -219 77 -35 214 -51 314 -36 128 20 209
66 328 188 58 59 113 106 129 110 61 15 113 -51 101 -129 -8 -48 -40 -112 -78
-155 -31 -36 -29 -52 6 -52 45 0 60 -45 31 -99 -18 -36 -91 -100 -122 -107
-35 -9 -31 -44 5 -44 78 0 95 -65 35 -131 -157 -174 -450 -277 -706 -250 -284
31 -474 147 -561 342 -62 141 -60 267 12 654 61 330 86 520 78 596 l-5 57 37
6 c37 5 89 46 76 59 -4 4 -21 -5 -38 -19 -27 -24 -36 -26 -91 -21 -89 7 -112
20 -107 62 4 30 0 36 -36 59 -36 22 -42 32 -52 83 -6 32 -14 67 -17 79 -3 15
9 36 44 73 75 82 172 108 281 76z m-377 -208 c-10 -9 -11 -8 -5 6 3 10 9 15
12 12 3 -3 0 -11 -7 -18z m-293 -144 c-10 -2 -26 -2 -35 0 -10 3 -2 5 17 5 19
0 27 -2 18 -5z m249 1 c-3 -3 -12 -4 -19 -1 -8 3 -5 6 6 6 11 1 17 -2 13 -5z
m-160 -10 c-3 -3 -12 -4 -19 -1 -8 3 -5 6 6 6 11 1 17 -2 13 -5z m46 -1 c-7
-2 -19 -2 -25 0 -7 3 -2 5 12 5 14 0 19 -2 13 -5z m187 -23 c-14 -4 -45 -8
-70 -7 l-45 0 50 7 c73 10 96 10 65 0z m1000 -1765 c0 -29 -39 -93 -70 -115
-43 -30 -90 -36 -134 -15 -41 20 -81 66 -91 106 l-6 25 88 -4 c48 -2 113 1
143 6 30 5 58 10 63 11 4 0 7 -6 7 -14z m-310 -281 c0 -3 -15 -4 -34 -2 -19 1
-33 5 -31 8 4 7 65 1 65 -6z"/>
<path d="M2400 4035 c-18 -22 -1 -50 31 -50 20 0 24 5 24 30 0 23 -5 31 -21
33 -11 2 -27 -4 -34 -13z"/>
<path d="M2751 2801 c-55 -129 -65 -285 -23 -367 44 -86 152 -144 235 -125 20
5 39 5 42 1 3 -4 25 -17 50 -29 134 -63 314 21 332 155 4 33 12 43 44 62 47
27 83 74 99 129 14 46 9 73 -14 73 -9 0 -17 -15 -21 -40 -10 -56 -43 -101 -98
-130 -40 -21 -47 -30 -47 -55 -1 -123 -142 -208 -266 -160 l-46 17 26 27 c37
39 48 76 36 121 -11 39 -53 90 -76 90 -27 0 -25 -23 5 -54 95 -98 -46 -214
-179 -146 -113 58 -137 201 -66 397 14 36 23 70 20 75 -13 20 -33 4 -53 -41z"/>
<path d="M2520 2540 c0 -19 40 -90 50 -90 14 0 13 3 -12 55 -21 42 -38 58 -38
35z"/>
<path d="M2612 2378 c20 -30 96 -85 131 -93 39 -10 34 9 -7 23 -18 7 -54 30
-79 52 -51 45 -67 51 -45 18z"/>
</g>
</svg>
