<?xml version="1.0" standalone="no"?>
<!DOCTYPE svg PUBLIC "-//W3C//DTD SVG 20010904//EN"
 "http://www.w3.org/TR/2001/REC-SVG-20010904/DTD/svg10.dtd">
<svg version="1.0" xmlns="http://www.w3.org/2000/svg"
 width="32.000000pt" height="32.000000pt" viewBox="0 0 32.000000 32.000000"
 preserveAspectRatio="xMidYMid meet">

<g transform="translate(0.000000,32.000000) scale(0.100000,-0.100000)"
fill="#000000" stroke="none">
<path d="M0 160 l0 -160 160 0 160 0 0 42 c0 41 0 42 -16 20 -13 -19 -63 -52
-78 -52 -3 0 -5 18 -4 40 1 29 -5 47 -20 63 -27 29 -28 43 -2 57 26 14 26 30
0 23 -22 -6 -28 12 -7 20 6 3 0 6 -15 6 -47 2 -78 -55 -46 -87 6 -6 10 -13 7
-15 -10 -7 -129 6 -129 14 0 5 7 9 15 9 11 0 15 18 17 78 l3 77 89 3 c99 3
136 -7 166 -46 l20 -25 0 47 0 46 -160 0 -160 0 0 -160z"/>
<path d="M230 170 c0 -5 5 -10 11 -10 5 0 7 5 4 10 -3 6 -8 10 -11 10 -2 0 -4
-4 -4 -10z"/>
</g>
</svg>
