<svg width="48" height="48" viewBox="0 0 48 48" fill="none" xmlns="http://www.w3.org/2000/svg">
<g id="ph:user">
<path id="Vector" d="M43.2973 39.75C40.4417 34.8131 36.041 31.2731 30.9054 29.595C33.4457 28.0827 35.4194 25.7784 36.5233 23.0359C37.6272 20.2933 37.8004 17.2643 37.0161 14.4138C36.2319 11.5633 34.5337 9.04912 32.1822 7.25724C29.8308 5.46536 26.9561 4.4949 23.9998 4.4949C21.0434 4.4949 18.1688 5.46536 15.8173 7.25724C13.4659 9.04912 11.7676 11.5633 10.9834 14.4138C10.1992 17.2643 10.3723 20.2933 11.4763 23.0359C12.5802 25.7784 14.5538 28.0827 17.0942 29.595C11.9585 31.2713 7.5579 34.8113 4.70228 39.75C4.59755 39.9208 4.52809 40.1108 4.49799 40.3088C4.46789 40.5068 4.47776 40.7089 4.52701 40.903C4.57626 41.0972 4.6639 41.2795 4.78476 41.4393C4.90562 41.599 5.05725 41.7329 5.2307 41.8331C5.40415 41.9333 5.59591 41.9977 5.79466 42.0226C5.99342 42.0475 6.19515 42.0323 6.38794 41.9779C6.58073 41.9236 6.76069 41.8312 6.91719 41.7062C7.07369 41.5811 7.20356 41.426 7.29915 41.25C10.8317 35.145 17.0754 31.5 23.9998 31.5C30.9242 31.5 37.1679 35.145 40.7004 41.25C40.796 41.426 40.9259 41.5811 41.0824 41.7062C41.2389 41.8312 41.4188 41.9236 41.6116 41.9779C41.8044 42.0323 42.0061 42.0475 42.2049 42.0226C42.4036 41.9977 42.5954 41.9333 42.7689 41.8331C42.9423 41.7329 43.0939 41.599 43.2148 41.4393C43.3356 41.2795 43.4233 41.0972 43.4725 40.903C43.5218 40.7089 43.5317 40.5068 43.5016 40.3088C43.4715 40.1108 43.402 39.9208 43.2973 39.75ZM13.4998 18C13.4998 15.9233 14.1156 13.8932 15.2693 12.1665C16.4231 10.4398 18.063 9.09399 19.9816 8.29927C21.9002 7.50455 24.0114 7.29661 26.0482 7.70176C28.085 8.1069 29.9559 9.10693 31.4244 10.5754C32.8928 12.0438 33.8929 13.9148 34.298 15.9516C34.7032 17.9884 34.4952 20.0996 33.7005 22.0182C32.9058 23.9368 31.56 25.5767 29.8333 26.7304C28.1065 27.8842 26.0765 28.5 23.9998 28.5C21.2159 28.497 18.5469 27.3898 16.5784 25.4213C14.61 23.4529 13.5028 20.7839 13.4998 18Z" fill="white" fill-opacity="0.18"/>
</g>
</svg>
